<svg xmlns="http://www.w3.org/2000/svg" viewBox="0 0 64 64" width="64" height="64">
  <!-- Background -->
  <rect width="64" height="64" fill="#4F46E5" rx="8"/>
  
  <!-- Book -->
  <g transform="translate(12, 12)">
    <!-- Left page -->
    <path d="M 2 8 L 2 36 L 18 40 L 18 12 L 2 8 Z" fill="#FFFFFF" stroke="#312E81" stroke-width="1.5"/>
    
    <!-- Right page -->
    <path d="M 22 12 L 22 40 L 38 36 L 38 8 L 22 12 Z" fill="#FFFFFF" stroke="#312E81" stroke-width="1.5"/>
    
    <!-- Spine -->
    <path d="M 18 12 L 22 12 L 22 40 L 18 40 Z" fill="#312E81"/>
    
    <!-- Lines on left page -->
    <line x1="6" y1="16" x2="14" y2="16" stroke="#C7D2FE" stroke-width="1.2"/>
    <line x1="6" y1="20" x2="14" y2="20" stroke="#C7D2FE" stroke-width="1.2"/>
    <line x1="6" y1="24" x2="14" y2="24" stroke="#C7D2FE" stroke-width="1.2"/>
    <line x1="6" y1="28" x2="14" y2="28" stroke="#C7D2FE" stroke-width="1.2"/>
    
    <!-- Lines on right page -->
    <line x1="26" y1="16" x2="34" y2="16" stroke="#C7D2FE" stroke-width="1.2"/>
    <line x1="26" y1="20" x2="34" y2="20" stroke="#C7D2FE" stroke-width="1.2"/>
    <line x1="26" y1="24" x2="34" y2="24" stroke="#C7D2FE" stroke-width="1.2"/>
    <line x1="26" y1="28" x2="34" y2="28" stroke="#C7D2FE" stroke-width="1.2"/>
  </g>
</svg>
